<svg width="24" height="21" viewBox="0 0 24 21" fill="none" xmlns="http://www.w3.org/2000/svg">
<g opacity="0.2" filter="url(#filter0_d_1_401)">
<path d="M6 16H9V10H15V16H18V7L12 2.5L6 7V16ZM6 18C5.45 18 4.97933 17.8043 4.588 17.413C4.196 17.021 4 16.55 4 16V7C4 6.68333 4.071 6.38333 4.213 6.1C4.35433 5.81667 4.55 5.58333 4.8 5.4L10.8 0.9C10.9833 0.766667 11.175 0.666667 11.375 0.6C11.575 0.533333 11.7833 0.5 12 0.5C12.2167 0.5 12.425 0.533333 12.625 0.6C12.825 0.666667 13.0167 0.766667 13.2 0.9L19.2 5.4C19.45 5.58333 19.646 5.81667 19.788 6.1C19.9293 6.38333 20 6.68333 20 7V16C20 16.55 19.8043 17.021 19.413 17.413C19.021 17.8043 18.55 18 18 18H13V12H11V18H6Z" fill="black"/>
</g>
<defs>
<filter id="filter0_d_1_401" x="0" y="0.5" width="24" height="25.5" filterUnits="userSpaceOnUse" color-interpolation-filters="sRGB">
<feFlood flood-opacity="0" result="BackgroundImageFix"/>
<feColorMatrix in="SourceAlpha" type="matrix" values="0 0 0 0 0 0 0 0 0 0 0 0 0 0 0 0 0 0 127 0" result="hardAlpha"/>
<feOffset dy="4"/>
<feGaussianBlur stdDeviation="2"/>
<feComposite in2="hardAlpha" operator="out"/>
<feColorMatrix type="matrix" values="0 0 0 0 0 0 0 0 0 0 0 0 0 0 0 0 0 0 0.25 0"/>
<feBlend mode="normal" in2="BackgroundImageFix" result="effect1_dropShadow_1_401"/>
<feBlend mode="normal" in="SourceGraphic" in2="effect1_dropShadow_1_401" result="shape"/>
</filter>
</defs>
</svg>
