<svg width="118" height="31" viewBox="0 0 118 31" fill="none" xmlns="http://www.w3.org/2000/svg">
<g clip-path="url(#clip0_353_143)">
<path d="M35.9971 21.275H44.2932V18.5531H38.9457V8.30042H35.9971V21.275Z" fill="#340E0E"/>
<path d="M49.2083 19.4604C48.0255 19.4604 47.4091 18.3354 47.4091 16.6478C47.4091 14.9602 48.0255 13.8169 49.2083 13.8169C50.391 13.8169 51.0241 14.9602 51.0241 16.6478C51.0241 18.3354 50.391 19.4604 49.2083 19.4604ZM49.2249 21.5654C51.9736 21.5654 53.7728 19.4423 53.7728 16.6478C53.7728 13.8532 51.9736 11.7301 49.2249 11.7301C46.4929 11.7301 44.6604 13.8532 44.6604 16.6478C44.6604 19.4423 46.4929 21.5654 49.2249 21.5654Z" fill="#340E0E"/>
<path d="M58.5306 24.4869C59.7966 24.4869 60.9128 24.1785 61.6624 23.4526C62.3454 22.7812 62.7952 21.765 62.7952 20.3677V11.9841H60.1965V12.9822H60.1631C59.6634 12.2019 58.8971 11.7119 57.7643 11.7119C55.6486 11.7119 54.1826 13.6354 54.1826 16.3574C54.1826 19.2064 55.9651 20.7669 57.8809 20.7669C58.9137 20.7669 59.5634 20.3133 60.0632 19.6963H60.1298V20.6218C60.1298 21.7468 59.6467 22.4001 58.4973 22.4001C57.5977 22.4001 57.1479 21.9827 56.998 21.4928H54.3659C54.6324 23.4345 56.1817 24.4869 58.5306 24.4869ZM58.5139 18.5712C57.4977 18.5712 56.8314 17.6639 56.8314 16.2666C56.8314 14.8512 57.4977 13.9439 58.5139 13.9439C59.6467 13.9439 60.2464 14.9964 60.2464 16.2485C60.2464 17.555 59.6967 18.5712 58.5139 18.5712Z" fill="#340E0E"/>
<path d="M68.1387 19.4604C66.9559 19.4604 66.3395 18.3354 66.3395 16.6478C66.3395 14.9602 66.9559 13.8169 68.1387 13.8169C69.3215 13.8169 69.9545 14.9602 69.9545 16.6478C69.9545 18.3354 69.3215 19.4604 68.1387 19.4604ZM68.1553 21.5654C70.904 21.5654 72.7032 19.4423 72.7032 16.6478C72.7032 13.8532 70.904 11.7301 68.1553 11.7301C65.4233 11.7301 63.5908 13.8532 63.5908 16.6478C63.5908 19.4423 65.4233 21.5654 68.1553 21.5654Z" fill="#340E0E"/>
<path d="M73.4958 21.275H76.2112V11.9841H73.4958V21.275ZM73.4958 10.6957H76.2112V8.30042H73.4958V10.6957Z" fill="#340E0E"/>
<path d="M77.3899 24.3418H80.1053V20.3133H80.1386C80.6717 21.0936 81.4546 21.5654 82.5541 21.5654C84.7864 21.5654 86.269 19.6419 86.269 16.6296C86.269 13.835 84.8864 11.7119 82.6208 11.7119C81.4546 11.7119 80.6217 12.2745 80.0386 13.1092H79.9887V11.9841H77.3899V24.3418ZM81.8545 19.2789C80.6883 19.2789 80.022 18.2446 80.022 16.7385C80.022 15.2323 80.6217 14.0891 81.8045 14.0891C82.9706 14.0891 83.5203 15.1416 83.5203 16.7385C83.5203 18.3172 82.8873 19.2789 81.8545 19.2789Z" fill="#340E0E"/>
<path d="M90.69 21.5654C92.9223 21.5654 94.5715 20.5129 94.5715 18.4805C94.5715 16.1033 92.8057 15.686 91.3064 15.4138C90.2236 15.196 89.2574 15.1053 89.2574 14.452C89.2574 13.8713 89.7738 13.5991 90.4402 13.5991C91.1898 13.5991 91.7062 13.8532 91.8062 14.6879H94.305C94.1717 12.8551 92.8723 11.7119 90.4568 11.7119C88.4411 11.7119 86.7752 12.7281 86.7752 14.6879C86.7752 16.8655 88.3578 17.301 89.8404 17.5732C90.9732 17.7909 92.0061 17.8817 92.0061 18.7164C92.0061 19.3152 91.4897 19.6419 90.6734 19.6419C89.7738 19.6419 89.2074 19.1882 89.1075 18.2627H86.542C86.6253 20.3133 88.1912 21.5654 90.69 21.5654Z" fill="#340E0E"/>
<path d="M98.2601 21.5473C99.4428 21.5473 100.192 21.0392 100.809 20.1318H100.859V21.2751H103.458V11.9841H100.742V17.174C100.742 18.2809 100.176 19.0431 99.2429 19.0431C98.3767 19.0431 97.9602 18.4805 97.9602 17.4643V11.9841H95.2615V18.0813C95.2615 20.15 96.2943 21.5473 98.2601 21.5473Z" fill="#340E0E"/>
<path d="M104.638 21.275H107.354V16.067C107.354 14.9601 107.853 14.1798 108.703 14.1798C109.519 14.1798 109.902 14.7605 109.902 15.7585V21.275H112.618V16.067C112.618 14.9601 113.101 14.1798 113.967 14.1798C114.783 14.1798 115.167 14.7605 115.167 15.7585V21.275H117.882V15.2323C117.882 13.1455 116.916 11.7119 114.983 11.7119C113.884 11.7119 112.968 12.22 112.301 13.3451H112.268C111.835 12.347 110.985 11.7119 109.869 11.7119C108.636 11.7119 107.82 12.347 107.287 13.3088H107.237V11.9841H104.638V21.275Z" fill="#340E0E"/>
<path fill-rule="evenodd" clip-rule="evenodd" d="M14.3572 30.3484C22.0242 30.3484 28.2396 23.578 28.2396 15.2264C28.2396 6.87482 22.0242 0.104492 14.3572 0.104492C6.69018 0.104492 0.474854 6.87482 0.474854 15.2264C0.474854 23.578 6.69018 30.3484 14.3572 30.3484ZM18.688 7.14893C18.8988 6.33326 18.1722 5.85093 17.5085 6.36596L8.24419 13.5551C7.52446 14.1137 7.63767 15.2264 8.41425 15.2264H10.8538V15.2059H15.6084L11.7343 16.6948L10.0264 23.304C9.81561 24.1196 10.5422 24.602 11.2059 24.0869L20.4702 16.8978C21.19 16.3392 21.0767 15.2264 20.3002 15.2264H16.6007L18.688 7.14893Z" fill="#F5841F"/>
</g>
<defs>
<clipPath id="clip0_353_143">
<rect width="118" height="31" fill="white"/>
</clipPath>
</defs>
</svg>
