<svg width="149" height="38" viewBox="0 0 149 38" fill="none" xmlns="http://www.w3.org/2000/svg">
<path d="M47.2842 25.6552H58.1816V22.3728H51.1574V10.0093H47.2842V25.6552Z" fill="#8ECAE6"/>
<path d="M64.6379 23.4669C63.0843 23.4669 62.2746 22.1102 62.2746 20.0751C62.2746 18.0401 63.0843 16.6615 64.6379 16.6615C66.1916 16.6615 67.0231 18.0401 67.0231 20.0751C67.0231 22.1102 66.1916 23.4669 64.6379 23.4669ZM64.6598 26.0053C68.2704 26.0053 70.6337 23.445 70.6337 20.0751C70.6337 16.7053 68.2704 14.145 64.6598 14.145C61.0711 14.145 58.6641 16.7053 58.6641 20.0751C58.6641 23.445 61.0711 26.0053 64.6598 26.0053Z" fill="#8ECAE6"/>
<path d="M76.8834 29.5285C78.5465 29.5285 80.0126 29.1565 80.9973 28.2812C81.8945 27.4715 82.4853 26.2461 82.4853 24.5612V14.4515H79.0717V15.6551H79.0279C78.3714 14.7141 77.3648 14.1233 75.8768 14.1233C73.0978 14.1233 71.1721 16.4428 71.1721 19.7252C71.1721 23.1607 73.5135 25.0426 76.03 25.0426C77.3867 25.0426 78.2401 24.4955 78.8966 23.7515H78.9841V24.8675C78.9841 26.2242 78.3495 27.012 76.8397 27.012C75.658 27.012 75.0672 26.5087 74.8702 25.9179H71.4128C71.7629 28.2593 73.798 29.5285 76.8834 29.5285ZM76.8615 22.3948C75.5267 22.3948 74.6514 21.3007 74.6514 19.6158C74.6514 17.9089 75.5267 16.8148 76.8615 16.8148C78.3495 16.8148 79.1373 18.084 79.1373 19.5939C79.1373 21.1694 78.4152 22.3948 76.8615 22.3948Z" fill="#8ECAE6"/>
<path d="M89.5043 23.4669C87.9506 23.4669 87.141 22.1102 87.141 20.0751C87.141 18.0401 87.9506 16.6615 89.5043 16.6615C91.0579 16.6615 91.8895 18.0401 91.8895 20.0751C91.8895 22.1102 91.0579 23.4669 89.5043 23.4669ZM89.5262 26.0053C93.1368 26.0053 95.5 23.445 95.5 20.0751C95.5 16.7053 93.1368 14.145 89.5262 14.145C85.9375 14.145 83.5304 16.7053 83.5304 20.0751C83.5304 23.445 85.9375 26.0053 89.5262 26.0053Z" fill="#8ECAE6"/>
<path d="M96.5413 25.6552H100.108V14.4514H96.5413V25.6552ZM96.5413 12.8977H100.108V10.0093H96.5413V12.8977Z" fill="#8ECAE6"/>
<path d="M101.656 29.3534H105.223V24.4955H105.267C105.967 25.4365 106.996 26.0054 108.44 26.0054C111.372 26.0054 113.32 23.6859 113.32 20.0534C113.32 16.6835 111.503 14.1233 108.527 14.1233C106.996 14.1233 105.901 14.8016 105.136 15.8082H105.07V14.4515H101.656V29.3534ZM107.521 23.2482C105.989 23.2482 105.114 22.0009 105.114 20.1847C105.114 18.3685 105.901 16.9899 107.455 16.9899C108.987 16.9899 109.709 18.2591 109.709 20.1847C109.709 22.0885 108.877 23.2482 107.521 23.2482Z" fill="#8ECAE6"/>
<path d="M119.127 26.0054C122.059 26.0054 124.225 24.7362 124.225 22.2854C124.225 19.4188 121.906 18.9155 119.936 18.5873C118.514 18.3247 117.245 18.2153 117.245 17.4275C117.245 16.7273 117.923 16.3991 118.798 16.3991C119.783 16.3991 120.461 16.7054 120.593 17.712H123.875C123.7 15.5019 121.993 14.1233 118.82 14.1233C116.172 14.1233 113.984 15.3487 113.984 17.712C113.984 20.3379 116.063 20.8631 118.011 21.1913C119.499 21.4539 120.855 21.5633 120.855 22.5699C120.855 23.292 120.177 23.6859 119.105 23.6859C117.923 23.6859 117.179 23.1388 117.048 22.0228H113.678C113.787 24.4955 115.844 26.0054 119.127 26.0054Z" fill="#8ECAE6"/>
<path d="M129.07 25.9837C130.624 25.9837 131.609 25.371 132.418 24.2768H132.484V25.6554H135.898V14.4517H132.331V20.71C132.331 22.0448 131.587 22.9639 130.361 22.9639C129.223 22.9639 128.676 22.2855 128.676 21.0601V14.4517H125.131V21.8041C125.131 24.2987 126.488 25.9837 129.07 25.9837Z" fill="#8ECAE6"/>
<path d="M137.448 25.6553H141.015V19.3751C141.015 18.0402 141.672 17.0993 142.788 17.0993C143.86 17.0993 144.363 17.7995 144.363 19.0031V25.6553H147.93V19.3751C147.93 18.0402 148.565 17.0993 149.703 17.0993C150.775 17.0993 151.278 17.7995 151.278 19.0031V25.6553H154.845V18.3685C154.845 15.852 153.576 14.1233 151.037 14.1233C149.593 14.1233 148.39 14.736 147.514 16.0927H147.471C146.902 14.8892 145.786 14.1233 144.32 14.1233C142.7 14.1233 141.628 14.8892 140.928 16.0489H140.862V14.4515H137.448V25.6553Z" fill="#8ECAE6"/>
<path fill-rule="evenodd" clip-rule="evenodd" d="M18.8591 36.5963C28.9302 36.5963 37.0944 28.4321 37.0944 18.361C37.0944 8.28996 28.9302 0.125732 18.8591 0.125732C8.78798 0.125732 0.623779 8.28996 0.623779 18.361C0.623779 28.4321 8.78798 36.5963 18.8591 36.5963ZM24.5479 8.6205C24.8248 7.6369 23.8702 7.05526 22.9985 7.67633L10.8293 16.3456C9.88386 17.0192 10.0326 18.361 11.0527 18.361H14.2571V18.3362H20.5025L15.4137 20.1317L13.1703 28.1016C12.8934 29.0852 13.8478 29.6668 14.7197 29.0457L26.8889 20.3765C27.8343 19.7029 27.6855 18.361 26.6655 18.361H21.806L24.5479 8.6205Z" fill="#F5841F"/>
</svg>
